<svg width="143.08398" height="143.08203" viewBox="0 0 37.857638 37.857121" version="1.1" xml:space="preserve" xmlns="http://www.w3.org/2000/svg" xmlns:svg="http://www.w3.org/2000/svg">
	<rect height="37.8576" width="37.8576" />
	<path fill="#f1f2f3" d="m0 0a2.251773 2.251773 0 0 0-2.252 2.25155 2.251773 2.251773 0 0 0 2.252 2.25205 2.251773 2.251773 0 0 0 2.2516-2.25205 2.251773 2.251773 0 0 0-2.2516-2.25155zm16.6765 0a2.251773 2.251773 0 0 0-2.2515 2.25155 2.251773 2.251773 0 0 0 2.2515 2.25205 2.251773 2.251773 0 0 0 2.2521-2.25205 2.251773 2.251773 0 0 0-2.2521-2.25155zm16.677 0a2.251773 2.251773 0 0 0-2.2515 2.25155 2.251773 2.251773 0 0 0 2.2515 2.25205 2.251773 2.251773 0 0 0 2.2521-2.25205 2.251773 2.251773 0 0 0-2.2521-2.25155zm-33.3535 16.67702a2.251773 2.251773 0 0 0-2.252 2.25154 2.251773 2.251773 0 0 0 2.252 2.25206 2.251773 2.251773 0 0 0 2.2516-2.25206 2.251773 2.251773 0 0 0-2.2516-2.25154zm16.6765 0a2.251773 2.251773 0 0 0-2.2515 2.25154 2.251773 2.251773 0 0 0 2.2515 2.25206 2.251773 2.251773 0 0 0 2.2521-2.25206 2.251773 2.251773 0 0 0-2.2521-2.25154zm16.677 0a2.251773 2.251773 0 0 0-2.2515 2.25154 2.251773 2.251773 0 0 0 2.2515 2.25206 2.251773 2.251773 0 0 0 2.2521-2.25206 2.251773 2.251773 0 0 0-2.2521-2.25154zm-33.3535 16.6765a2.251773 2.251773 0 0 0-2.252 2.25206 2.251773 2.251773 0 0 0 2.252 2.25154 2.251773 2.251773 0 0 0 2.2516-2.25154 2.251773 2.251773 0 0 0-2.2516-2.25206zm16.6765 0a2.251773 2.251773 0 0 0-2.2515 2.25206 2.251773 2.251773 0 0 0 2.2515 2.25154 2.251773 2.251773 0 0 0 2.2521-2.25154 2.251773 2.251773 0 0 0-2.2521-2.25206zm16.677 0a2.251773 2.251773 0 0 0-2.2515 2.25206 2.251773 2.251773 0 0 0 2.2515 2.25154 2.251773 2.251773 0 0 0 2.2521-2.25154 2.251773 2.251773 0 0 0-2.2521-2.25206z" transform="matrix(0.8 0 0 0.8 5.7 4)" />
</svg>